<svg xmlns="http://www.w3.org/2000/svg" viewBox="0 0 512 512">
  <defs>
    <linearGradient id="bg" x1="0%" y1="0%" x2="100%" y2="100%">
      <stop offset="0%" style="stop-color:#1a1a1f"/>
      <stop offset="100%" style="stop-color:#0f0f12"/>
    </linearGradient>
    <linearGradient id="cell" x1="0%" y1="0%" x2="100%" y2="100%">
      <stop offset="0%" style="stop-color:#3a3a45"/>
      <stop offset="100%" style="stop-color:#252530"/>
    </linearGradient>
    <linearGradient id="accent" x1="0%" y1="0%" x2="100%" y2="100%">
      <stop offset="0%" style="stop-color:#fbbf24"/>
      <stop offset="100%" style="stop-color:#f59e0b"/>
    </linearGradient>
  </defs>

  <!-- Solid fill for corners (prevents white edges when composited against white backgrounds, e.g. Google Search) -->
  <rect width="512" height="512" fill="#0f0f12"/>
  <!-- Background with rounded corners -->
  <rect width="512" height="512" rx="96" fill="url(#bg)"/>

  <!-- 3x3 Grid of bins -->
  <!-- Row 1 -->
  <rect x="64" y="64" width="112" height="112" rx="16" fill="url(#cell)" stroke="#4a4a55" stroke-width="2"/>
  <rect x="200" y="64" width="112" height="112" rx="16" fill="url(#cell)" stroke="#4a4a55" stroke-width="2"/>
  <rect x="336" y="64" width="112" height="112" rx="16" fill="url(#cell)" stroke="#4a4a55" stroke-width="2"/>

  <!-- Row 2 -->
  <rect x="64" y="200" width="112" height="112" rx="16" fill="url(#cell)" stroke="#4a4a55" stroke-width="2"/>
  <!-- Center cell - highlighted with accent -->
  <rect x="200" y="200" width="112" height="112" rx="16" fill="url(#accent)"/>
  <rect x="336" y="200" width="112" height="112" rx="16" fill="url(#cell)" stroke="#4a4a55" stroke-width="2"/>

  <!-- Row 3 -->
  <rect x="64" y="336" width="112" height="112" rx="16" fill="url(#cell)" stroke="#4a4a55" stroke-width="2"/>
  <rect x="200" y="336" width="112" height="112" rx="16" fill="url(#cell)" stroke="#4a4a55" stroke-width="2"/>
  <rect x="336" y="336" width="112" height="112" rx="16" fill="url(#cell)" stroke="#4a4a55" stroke-width="2"/>
</svg>
